<?xml version="1.0" encoding="UTF-8"?>
<svg xmlns="http://www.w3.org/2000/svg" xmlns:xlink="http://www.w3.org/1999/xlink" width="16pt" height="16pt" viewBox="0 0 16 16" version="1.1">
<g id="surface1">
<path style=" stroke:none;fill-rule:nonzero;fill:rgb(0%,0%,0%);fill-opacity:1;" d="M 16 8 C 16 12.417969 12.417969 16 8 16 C 3.582031 16 0 12.417969 0 8 C 0 3.582031 3.582031 0 8 0 C 12.417969 0 16 3.582031 16 8 Z M 8 1.601562 C 4.464844 1.601562 1.601562 4.464844 1.601562 8 C 1.601562 11.535156 4.464844 14.398438 8 14.398438 C 11.535156 14.398438 14.398438 11.535156 14.398438 8 C 14.398438 4.464844 11.535156 1.601562 8 1.601562 Z M 7.441406 10.03125 L 4.601562 7.199219 L 5.726562 6.070312 L 8 8.320312 L 10.265625 6.0625 L 11.390625 7.199219 L 8 10.59375 Z M 7.441406 10.03125 "/>
</g>
</svg>
