<?xml version="1.0" encoding="UTF-8"?>
<svg xmlns="http://www.w3.org/2000/svg" xmlns:xlink="http://www.w3.org/1999/xlink" width="16pt" height="16pt" viewBox="0 0 16 16" version="1.1">
<g id="surface1">
<path style=" stroke:none;fill-rule:nonzero;fill:rgb(0%,0%,0%);fill-opacity:1;" d="M 0 8 C 0 3.582031 3.582031 0 8 0 C 12.417969 0 16 3.582031 16 8 C 16 12.417969 12.417969 16 8 16 C 3.582031 16 0 12.417969 0 8 Z M 8 14.398438 C 11.535156 14.398438 14.398438 11.535156 14.398438 8 C 14.398438 4.464844 11.535156 1.601562 8 1.601562 C 4.464844 1.601562 1.601562 4.464844 1.601562 8 C 1.601562 11.535156 4.464844 14.398438 8 14.398438 Z M 8.558594 5.96875 L 11.398438 8.800781 L 10.273438 9.929688 L 8 7.679688 L 5.734375 9.921875 L 4.609375 8.800781 L 8 5.40625 Z M 8.558594 5.96875 "/>
</g>
</svg>
